<?xml version="1.0" encoding="utf-8"?>
<!-- Generator: Adobe Illustrator 16.0.0, SVG Export Plug-In . SVG Version: 6.00 Build 0)  -->
<!DOCTYPE svg PUBLIC "-//W3C//DTD SVG 1.1//EN" "http://www.w3.org/Graphics/SVG/1.1/DTD/svg11.dtd">
<svg version="1.1" id="Livello_1" xmlns="http://www.w3.org/2000/svg" xmlns:xlink="http://www.w3.org/1999/xlink" x="0px" y="0px"
	 width="800.958px" height="472.476px" viewBox="0 0 800.958 472.476" enable-background="new 0 0 800.958 472.476"
	 xml:space="preserve">
<polyline fill="#FFB5B5" stroke="#000080" stroke-width="3" stroke-miterlimit="10" points="524.448,102.962 624.865,157.225 
	624.865,304.49 597.759,321.315 597.759,248.897 547.876,248.897 547.876,352.276 524.448,366.818 524.448,102.474 "/>
<line fill="none" stroke="#000080" stroke-width="3" stroke-miterlimit="10" x1="794.876" y1="226.897" x2="400.641" y2="464.897"/>
<line fill="none" stroke="#000080" stroke-width="3" stroke-miterlimit="10" x1="794.876" y1="226.897" x2="400.641" y2="7.897"/>
<g>
	<line fill="none" stroke="#000080" stroke-width="3" stroke-miterlimit="10" x1="7.641" y1="226.897" x2="401.876" y2="464.897"/>
	<line fill="none" stroke="#000080" stroke-width="3" stroke-miterlimit="10" x1="7.641" y1="226.897" x2="401.876" y2="7.897"/>
</g>
<line fill="none" stroke="#000080" stroke-width="3" stroke-miterlimit="10" x1="749.876" y1="226.897" x2="655.309" y2="174.912"/>
<line fill="none" stroke="#000080" stroke-width="3" stroke-miterlimit="10" x1="749.876" y1="226.897" x2="655.309" y2="285.594"/>
<line fill="none" stroke="#000080" stroke-width="3" stroke-miterlimit="10" x1="655.309" y1="211.085" x2="684.876" y2="226.897"/>
<path fill="none" stroke="#000080" stroke-width="3" stroke-miterlimit="10" d="M624.865,194.805"/>
<line fill="none" stroke="#000080" stroke-width="3" stroke-miterlimit="10" x1="655.309" y1="211.085" x2="655.309" y2="174.912"/>
<line fill="none" stroke="#000080" stroke-width="3" stroke-miterlimit="10" x1="655.309" y1="285.594" x2="655.309" y2="244.897"/>
<line fill="none" stroke="#000080" stroke-width="3" stroke-miterlimit="10" x1="684.876" y1="226.897" x2="655.309" y2="244.897"/>
<polygon fill="#FFFFFF" stroke="#000080" stroke-width="3" stroke-miterlimit="10" points="597.759,214.897 597.759,180.309 
	547.877,153.634 547.876,214.897 "/>
<polygon fill="#FFB5B5" stroke="#000080" stroke-width="3" stroke-miterlimit="10" points="501.933,338.443 513.147,331.421 
	513.147,373.833 501.933,380.793 "/>
<polygon fill="#FFB5B5" stroke="#000080" stroke-width="3" stroke-miterlimit="10" points="633.378,258.249 644.68,251.943 
	644.68,292.192 633.378,299.206 "/>
<path fill="none" stroke="#000080" stroke-width="3" stroke-miterlimit="10" d="M133.38,217.818"/>
<polyline fill="#FFB5B5" stroke="#000080" stroke-width="3" stroke-miterlimit="10" points="292.937,335.147 292.937,376.336 
	281.551,369.883 281.551,327.976 293.816,335.684 "/>
<polyline fill="#FFB5B5" stroke="#000080" stroke-width="3" stroke-miterlimit="10" points="400.96,443.397 493.157,386.24 
	493.157,248.897 462.91,214.897 400.641,214.897 400.641,248.897 462.91,248.897 462.91,362.587 462.91,362.647 400.641,400.73 
	400.577,400.73 333.369,359.65 333.369,359.618 333.369,111.156 333.573,111.156 400.641,74.897 493.157,124.372 493.157,86.285 
	493.157,85.76 400.641,34.897 301.958,88.908 301.958,382.562 399.876,443.397 "/>
<polyline fill="#FFB5B5" stroke="#000080" stroke-width="3" stroke-miterlimit="10" points="270.296,256.322 194.404,209.897 
	194.404,186.397 269.808,144.862 269.808,106.825 170.136,161.622 170.054,161.468 170.054,220.897 169.404,220.897 
	245.296,267.322 245.296,266.564 245.296,305.743 169.404,259.318 170.054,259.318 170.054,300.612 169.404,300.208 
	269.808,362.587 269.808,255.564 "/>
<g>
	
		<line fill="#FFB5B5" stroke="#000080" stroke-width="3" stroke-miterlimit="10" x1="51.309" y1="226.897" x2="145.876" y2="174.912"/>
	
		<line fill="#FFB5B5" stroke="#000080" stroke-width="3" stroke-miterlimit="10" x1="51.309" y1="226.897" x2="145.876" y2="285.594"/>
	
		<line fill="#FFB5B5" stroke="#000080" stroke-width="3" stroke-miterlimit="10" x1="145.876" y1="211.085" x2="116.309" y2="226.897"/>
	
		<line fill="#FFB5B5" stroke="#000080" stroke-width="3" stroke-miterlimit="10" x1="145.876" y1="211.085" x2="145.876" y2="174.912"/>
	
		<line fill="#FFB5B5" stroke="#000080" stroke-width="3" stroke-miterlimit="10" x1="145.876" y1="285.594" x2="145.876" y2="244.897"/>
	
		<line fill="#FFB5B5" stroke="#000080" stroke-width="3" stroke-miterlimit="10" x1="116.309" y1="226.897" x2="145.876" y2="244.897"/>
</g>
<polygon fill="#F2F2F2" stroke="#000080" stroke-miterlimit="10" points="-432.626,265.504 -432.626,230.916 -482.507,204.241 
	-482.508,265.504 "/>
<g>
	<g>
		<path fill="none" stroke="#000080" stroke-width="3" stroke-miterlimit="10" d="M734.876,369.897"/>
	</g>
</g>
<g>
	<g>
		<path fill="none" stroke="#000080" stroke-width="3" stroke-miterlimit="10" d="M731.876,406.897"/>
	</g>
</g>
<g>
	<g>
		<path fill="none" stroke="#000080" stroke-width="3" stroke-miterlimit="10" d="M741.876,422.897"/>
	</g>
</g>
<rect x="160.376" y="253.397" fill="#FFFFFF" stroke="#FFFFFF" stroke-width="3" stroke-miterlimit="10" width="6.75" height="8.5"/>
<rect x="162.877" y="243.647" transform="matrix(0.8701 0.4929 -0.4929 0.8701 144.9233 -51.0848)" fill="#FFFFFF" stroke="#FFFFFF" stroke-width="3" stroke-miterlimit="10" width="13" height="11.5"/>
<rect x="156.543" y="215.897" fill="#FFFFFF" stroke="#FFFFFF" stroke-width="3" stroke-miterlimit="10" width="10.583" height="14.333"/>
<rect x="157.762" y="154.959" transform="matrix(0.8766 -0.4813 0.4813 0.8766 -55.9393 98.3148)" fill="#FFFFFF" stroke="#FFFFFF" stroke-width="3" stroke-miterlimit="10" width="11.861" height="6.5"/>
</svg>
