<?xml version="1.0" encoding="utf-8"?>
<!-- Generator: Adobe Illustrator 16.0.0, SVG Export Plug-In . SVG Version: 6.00 Build 0)  -->
<!DOCTYPE svg PUBLIC "-//W3C//DTD SVG 1.1//EN" "http://www.w3.org/Graphics/SVG/1.1/DTD/svg11.dtd">
<svg version="1.1" id="Livello_1" xmlns="http://www.w3.org/2000/svg" xmlns:xlink="http://www.w3.org/1999/xlink" x="0px" y="0px"
	 width="800.958px" height="472.476px" viewBox="0 0 800.958 472.476" enable-background="new 0 0 800.958 472.476"
	 xml:space="preserve">
<line fill="none" stroke="#000000" stroke-width="3" stroke-miterlimit="10" x1="794.876" y1="226.897" x2="400.641" y2="464.897"/>
<line fill="none" stroke="#000000" stroke-width="3" stroke-miterlimit="10" x1="794.876" y1="226.897" x2="400.641" y2="7.897"/>
<g>
	<line fill="none" stroke="#000000" stroke-width="3" stroke-miterlimit="10" x1="7.641" y1="226.897" x2="401.876" y2="464.897"/>
	<line fill="none" stroke="#000000" stroke-width="3" stroke-miterlimit="10" x1="7.641" y1="226.897" x2="401.876" y2="7.897"/>
</g>
<line fill="none" stroke="#000000" stroke-width="3" stroke-miterlimit="10" x1="493.157" y1="85.76" x2="400.641" y2="34.897"/>
<line fill="none" stroke="#000000" stroke-width="3" stroke-miterlimit="10" x1="624.865" y1="157.225" x2="524.448" y2="102.962"/>
<line fill="none" stroke="#000000" stroke-width="3" stroke-miterlimit="10" x1="749.876" y1="226.897" x2="655.309" y2="174.912"/>
<line fill="none" stroke="#000000" stroke-width="3" stroke-miterlimit="10" x1="493.157" y1="386.24" x2="400.96" y2="443.397"/>
<line fill="none" stroke="#000000" stroke-width="3" stroke-miterlimit="10" x1="513.147" y1="373.833" x2="501.933" y2="380.793"/>
<line fill="none" stroke="#000000" stroke-width="3" stroke-miterlimit="10" x1="547.876" y1="352.276" x2="524.448" y2="366.818"/>
<line fill="none" stroke="#000000" stroke-width="3" stroke-miterlimit="10" x1="624.865" y1="304.49" x2="597.759" y2="321.315"/>
<line fill="none" stroke="#000000" stroke-width="3" stroke-miterlimit="10" x1="644.68" y1="292.192" x2="633.378" y2="299.206"/>
<line fill="none" stroke="#000000" stroke-width="3" stroke-miterlimit="10" x1="749.876" y1="226.897" x2="655.309" y2="285.594"/>
<line fill="none" stroke="#000000" stroke-width="3" stroke-miterlimit="10" x1="655.309" y1="211.085" x2="684.876" y2="226.897"/>
<path fill="none" stroke="#000000" stroke-width="3" stroke-miterlimit="10" d="M624.865,194.805"/>
<line fill="none" stroke="#000000" stroke-width="3" stroke-miterlimit="10" x1="547.877" y1="153.634" x2="597.759" y2="180.309"/>
<line fill="none" stroke="#000000" stroke-width="3" stroke-miterlimit="10" x1="400.641" y1="74.897" x2="493.157" y2="124.372"/>
<line fill="none" stroke="#000000" stroke-width="3" stroke-miterlimit="10" x1="493.157" y1="124.372" x2="493.157" y2="86.285"/>
<line fill="none" stroke="#000000" stroke-width="3" stroke-miterlimit="10" x1="655.309" y1="211.085" x2="655.309" y2="174.912"/>
<line fill="none" stroke="#000000" stroke-width="3" stroke-miterlimit="10" x1="655.309" y1="285.594" x2="655.309" y2="244.897"/>
<line fill="none" stroke="#000000" stroke-width="3" stroke-miterlimit="10" x1="462.91" y1="362.647" x2="400.641" y2="400.73"/>
<line fill="none" stroke="#000000" stroke-width="3" stroke-miterlimit="10" x1="513.147" y1="331.421" x2="501.933" y2="338.443"/>
<line fill="none" stroke="#000000" stroke-width="3" stroke-miterlimit="10" x1="644.68" y1="251.943" x2="633.378" y2="258.249"/>
<line fill="none" stroke="#000000" stroke-width="3" stroke-miterlimit="10" x1="684.876" y1="226.897" x2="655.309" y2="244.897"/>
<line fill="none" stroke="#000000" stroke-width="3" stroke-miterlimit="10" x1="597.759" y1="214.897" x2="597.759" y2="180.309"/>
<line fill="none" stroke="#000000" stroke-width="3" stroke-miterlimit="10" x1="597.759" y1="214.897" x2="547.876" y2="214.897"/>
<line fill="none" stroke="#000000" stroke-width="3" stroke-miterlimit="10" x1="547.876" y1="214.897" x2="547.876" y2="153.634"/>
<line fill="none" stroke="#000000" stroke-width="3" stroke-miterlimit="10" x1="524.448" y1="366.818" x2="524.448" y2="102.474"/>
<line fill="none" stroke="#000000" stroke-width="3" stroke-miterlimit="10" x1="624.865" y1="304.49" x2="624.865" y2="157.225"/>
<line fill="none" stroke="#000000" stroke-width="3" stroke-miterlimit="10" x1="462.91" y1="362.587" x2="462.91" y2="248.897"/>
<line fill="none" stroke="#000000" stroke-width="3" stroke-miterlimit="10" x1="462.91" y1="248.897" x2="400.641" y2="248.897"/>
<line fill="none" stroke="#000000" stroke-width="3" stroke-miterlimit="10" x1="400.641" y1="248.897" x2="400.641" y2="214.897"/>
<line fill="none" stroke="#000000" stroke-width="3" stroke-miterlimit="10" x1="400.641" y1="214.897" x2="462.91" y2="214.897"/>
<line fill="none" stroke="#000000" stroke-width="3" stroke-miterlimit="10" x1="462.91" y1="214.897" x2="493.157" y2="248.897"/>
<line fill="none" stroke="#000000" stroke-width="3" stroke-miterlimit="10" x1="493.157" y1="248.897" x2="493.157" y2="386.24"/>
<line fill="none" stroke="#000000" stroke-width="3" stroke-miterlimit="10" x1="547.876" y1="352.276" x2="547.876" y2="248.897"/>
<line fill="none" stroke="#000000" stroke-width="3" stroke-miterlimit="10" x1="547.876" y1="248.897" x2="597.759" y2="248.897"/>
<line fill="none" stroke="#000000" stroke-width="3" stroke-miterlimit="10" x1="597.759" y1="248.897" x2="597.759" y2="321.315"/>
<line fill="none" stroke="#000000" stroke-width="3" stroke-miterlimit="10" x1="501.933" y1="380.793" x2="501.933" y2="338.443"/>
<line fill="none" stroke="#000000" stroke-width="3" stroke-miterlimit="10" x1="513.147" y1="373.833" x2="513.147" y2="331.421"/>
<line fill="none" stroke="#000000" stroke-width="3" stroke-miterlimit="10" x1="633.378" y1="299.206" x2="633.378" y2="258.249"/>
<line fill="none" stroke="#000000" stroke-width="3" stroke-miterlimit="10" x1="644.68" y1="292.192" x2="644.68" y2="251.943"/>
<line fill="none" stroke="#000000" stroke-width="3" stroke-miterlimit="10" x1="301.958" y1="382.562" x2="399.876" y2="443.397"/>
<line fill="none" stroke="#000000" stroke-width="3" stroke-miterlimit="10" x1="281.551" y1="369.884" x2="292.937" y2="376.336"/>
<line fill="none" stroke="#000000" stroke-width="3" stroke-miterlimit="10" x1="169.404" y1="300.208" x2="269.808" y2="362.587"/>
<line fill="none" stroke="#000000" stroke-width="3" stroke-miterlimit="10" x1="301.958" y1="88.908" x2="400.641" y2="34.897"/>
<line fill="none" stroke="#000000" stroke-width="3" stroke-miterlimit="10" x1="170.136" y1="161.622" x2="269.808" y2="106.825"/>
<line fill="none" stroke="#000000" stroke-width="3" stroke-miterlimit="10" x1="333.369" y1="359.65" x2="400.168" y2="400.48"/>
<line fill="none" stroke="#000000" stroke-width="3" stroke-miterlimit="10" x1="281.551" y1="327.976" x2="293.816" y2="335.684"/>
<line fill="none" stroke="#000000" stroke-width="3" stroke-miterlimit="10" x1="169.404" y1="259.318" x2="245.296" y2="305.743"/>
<line fill="none" stroke="#000000" stroke-width="3" stroke-miterlimit="10" x1="333.573" y1="111.156" x2="400.641" y2="74.897"/>
<line fill="none" stroke="#000000" stroke-width="3" stroke-miterlimit="10" x1="194.404" y1="186.397" x2="269.808" y2="144.862"/>
<path fill="none" stroke="#000000" stroke-width="3" stroke-miterlimit="10" d="M133.38,217.818"/>
<line fill="none" stroke="#000000" stroke-width="3" stroke-miterlimit="10" x1="170.054" y1="220.897" x2="170.054" y2="161.468"/>
<line fill="none" stroke="#000000" stroke-width="3" stroke-miterlimit="10" x1="170.054" y1="300.612" x2="170.054" y2="259.318"/>
<line fill="none" stroke="#000000" stroke-width="3" stroke-miterlimit="10" x1="269.808" y1="362.587" x2="269.808" y2="255.564"/>
<path fill="none" stroke="#000000" stroke-width="3" stroke-miterlimit="10" d="M194.876,214.897"/>
<path fill="none" stroke="#000000" stroke-width="3" stroke-miterlimit="10" d="M269.808,248.897"/>
<line fill="none" stroke="#000000" stroke-width="3" stroke-miterlimit="10" x1="269.808" y1="106.825" x2="269.808" y2="144.862"/>
<line fill="none" stroke="#000000" stroke-width="3" stroke-miterlimit="10" x1="301.958" y1="382.562" x2="301.958" y2="88.908"/>
<line fill="none" stroke="#000000" stroke-width="3" stroke-miterlimit="10" x1="281.551" y1="369.883" x2="281.551" y2="327.976"/>
<line fill="none" stroke="#000000" stroke-width="3" stroke-miterlimit="10" x1="292.937" y1="376.336" x2="292.937" y2="335.147"/>
<line fill="none" stroke="#000000" stroke-width="3" stroke-miterlimit="10" x1="333.369" y1="359.618" x2="333.369" y2="111.156"/>
<line fill="none" stroke="#000000" stroke-width="3" stroke-miterlimit="10" x1="245.296" y1="305.743" x2="245.296" y2="266.564"/>
<line fill="none" stroke="#000000" stroke-width="3" stroke-miterlimit="10" x1="169.404" y1="220.897" x2="245.296" y2="267.322"/>
<line fill="none" stroke="#000000" stroke-width="3" stroke-miterlimit="10" x1="194.404" y1="209.897" x2="270.296" y2="256.322"/>
<line fill="none" stroke="#000000" stroke-width="3" stroke-miterlimit="10" x1="194.404" y1="209.897" x2="194.404" y2="186.397"/>
<g>
	<line fill="none" stroke="#000000" stroke-width="3" stroke-miterlimit="10" x1="51.309" y1="226.897" x2="145.876" y2="174.912"/>
	<line fill="none" stroke="#000000" stroke-width="3" stroke-miterlimit="10" x1="51.309" y1="226.897" x2="145.876" y2="285.594"/>
	
		<line fill="none" stroke="#000000" stroke-width="3" stroke-miterlimit="10" x1="145.876" y1="211.085" x2="116.309" y2="226.897"/>
	
		<line fill="none" stroke="#000000" stroke-width="3" stroke-miterlimit="10" x1="145.876" y1="211.085" x2="145.876" y2="174.912"/>
	
		<line fill="none" stroke="#000000" stroke-width="3" stroke-miterlimit="10" x1="145.876" y1="285.594" x2="145.876" y2="244.897"/>
	
		<line fill="none" stroke="#000000" stroke-width="3" stroke-miterlimit="10" x1="116.309" y1="226.897" x2="145.876" y2="244.897"/>
</g>
</svg>
